<?xml version="1.0" standalone="no"?>
<!DOCTYPE svg PUBLIC "-//W3C//DTD SVG 20010904//EN"
 "http://www.w3.org/TR/2001/REC-SVG-20010904/DTD/svg10.dtd">
<svg version="1.0" xmlns="http://www.w3.org/2000/svg"
 width="864.000000pt" height="864.000000pt" viewBox="0 0 864.000000 864.000000"
 preserveAspectRatio="xMidYMid meet">
<metadata>
Created by potrace 1.14, written by Peter Selinger 2001-2017
</metadata>
<g transform="translate(0.000000,864.000000) scale(0.100000,-0.100000)"
fill="#000000" stroke="none">
<path d="M2552 8592 c-66 -68 -170 -200 -252 -322 -8 -12 -26 -37 -40 -55 -39
-51 -215 -308 -219 -319 -2 -6 -7 -13 -11 -16 -6 -5 -40 -54 -215 -310 -32
-47 -62 -86 -67 -88 -4 -2 -8 -8 -8 -13 0 -6 -18 -34 -40 -64 -22 -30 -40 -57
-40 -60 0 -3 -5 -11 -10 -18 -33 -38 -80 -107 -80 -116 0 -5 -4 -11 -8 -13 -4
-1 -42 -55 -85 -118 l-77 -115 29 -96 c44 -147 121 -380 137 -416 13 -28 18
-31 37 -24 30 12 179 91 195 103 6 6 12 7 12 3 0 -3 15 2 33 13 17 11 82 46
142 77 115 60 209 111 273 147 20 11 53 29 72 40 19 11 49 28 65 38 17 10 47
19 68 19 31 1 44 -6 78 -41 86 -89 189 -237 189 -273 0 -18 -59 -143 -80 -170
-4 -5 -20 -32 -36 -60 -22 -41 -265 -433 -406 -655 -20 -31 -34 -66 -33 -80 3
-26 14 -133 20 -185 2 -16 6 -66 10 -110 5 -44 9 -93 11 -110 2 -16 6 -57 9
-90 3 -33 7 -74 10 -91 6 -41 14 -35 -188 -143 -43 -23 -93 -51 -110 -61 -18
-11 -45 -27 -62 -36 -40 -22 -123 -82 -157 -114 -32 -28 -35 -58 -13 -119 8
-23 14 -43 15 -46 0 -3 0 -6 1 -7 0 -2 2 -11 4 -21 2 -10 7 -26 11 -35 4 -9 8
-21 10 -27 2 -11 61 -170 71 -195 3 -8 7 -21 9 -28 1 -7 12 -33 23 -58 12 -24
21 -46 21 -49 0 -10 93 -242 113 -280 11 -22 19 -41 18 -43 -1 -1 6 -19 15
-40 61 -145 75 -182 74 -188 -1 -4 2 -10 7 -13 12 -7 103 -223 115 -271 5 -19
11 -51 15 -70 6 -44 10 -47 27 -29 29 31 36 82 32 233 -2 83 -6 162 -9 176 -7
36 -21 156 -33 290 -9 105 -11 295 -3 325 39 144 178 68 379 -206 59 -81 140
-148 233 -193 84 -41 225 -97 254 -102 6 -1 51 -16 100 -32 80 -28 304 -100
328 -106 52 -14 71 -20 80 -25 6 -3 12 -6 15 -6 14 -2 130 -38 163 -50 20 -8
40 -15 45 -15 7 0 150 -43 217 -65 50 -17 157 -48 170 -51 6 -1 47 -12 93 -24
68 -19 90 -30 125 -65 54 -54 127 -134 127 -140 0 -3 8 -13 18 -23 9 -10 33
-38 52 -62 19 -24 40 -48 45 -54 12 -12 196 -244 235 -296 14 -18 32 -40 40
-50 8 -10 26 -32 40 -50 13 -17 33 -42 45 -54 11 -13 40 -47 65 -77 60 -72
304 -316 359 -360 24 -19 48 -39 55 -44 49 -45 276 -171 320 -179 37 -7 86
-42 101 -72 17 -36 41 -154 49 -239 2 -27 5 -50 6 -50 0 0 3 -27 6 -60 2 -33
6 -89 9 -125 3 -36 8 -90 10 -120 2 -30 6 -84 9 -120 3 -36 8 -101 11 -145 3
-44 8 -102 10 -130 3 -27 8 -81 11 -120 3 -38 7 -86 8 -105 2 -19 6 -60 10
-90 3 -30 8 -75 11 -100 4 -52 14 -133 21 -170 2 -14 6 -45 10 -70 11 -93 29
-124 59 -102 6 4 30 75 54 157 24 83 52 177 63 210 11 33 21 69 24 80 2 12 13
48 24 80 11 33 20 60 20 60 -1 0 1 7 4 15 2 8 14 49 26 90 12 41 24 82 27 90
3 8 7 21 9 29 1 8 10 37 19 65 10 28 18 56 20 61 1 6 5 17 8 25 3 8 17 53 31
100 13 47 36 121 49 165 45 142 99 320 102 330 1 6 4 17 8 25 8 22 58 188 61
202 2 7 6 20 9 28 13 35 67 217 67 228 0 7 -35 48 -77 91 -290 294 -317 324
-297 344 3 3 7 27 9 54 2 26 6 72 9 101 3 28 9 76 12 105 3 28 7 68 9 87 3 33
11 104 20 180 10 91 16 139 21 190 8 90 14 143 19 185 5 38 -2 51 -117 225
-68 102 -133 203 -145 225 -11 22 -30 57 -41 77 -37 65 -37 97 -3 149 33 49
83 102 156 164 26 22 61 53 79 68 54 48 65 51 76 22 6 -15 10 -33 10 -41 0 -8
7 -28 15 -44 9 -17 15 -31 15 -32 -1 -2 1 -10 4 -18 2 -8 14 -44 26 -80 11
-36 22 -69 23 -75 4 -16 138 -429 144 -445 4 -8 7 -17 8 -20 10 -31 39 -126
40 -130 1 -3 4 -12 7 -20 4 -8 23 -67 43 -130 20 -63 40 -124 44 -135 15 -36
36 -110 33 -118 -1 -4 3 -7 10 -7 6 0 9 -3 5 -6 -3 -3 5 -36 18 -73 13 -36 38
-113 56 -171 17 -58 35 -109 38 -115 3 -5 6 -14 7 -20 1 -5 11 -37 22 -70 11
-33 61 -188 112 -345 50 -157 96 -293 101 -302 5 -10 9 -26 9 -36 0 -10 3 -22
8 -26 4 -4 8 -12 8 -17 1 -5 2 -10 4 -11 1 -2 3 -10 5 -18 6 -27 95 -294 104
-315 5 -11 17 -47 26 -80 10 -33 20 -64 24 -70 3 -5 6 -14 7 -20 12 -60 109
-285 123 -285 5 0 14 15 21 34 10 31 13 42 25 99 2 12 8 36 11 52 4 17 8 44
10 60 1 17 3 30 4 30 2 0 4 9 5 20 1 11 10 58 18 105 9 47 19 105 22 130 3 25
8 52 10 60 5 19 18 97 30 175 3 23 7 50 9 60 2 11 7 40 10 65 3 25 8 56 11 70
3 14 8 39 10 55 2 17 6 46 9 65 3 19 8 51 11 70 3 19 7 46 10 60 3 14 7 41 9
60 3 19 8 53 11 75 3 22 8 54 10 70 2 17 4 30 5 30 2 0 3 10 14 85 3 25 8 59
11 75 3 17 8 45 11 63 4 29 -4 47 -60 133 -36 54 -66 104 -66 109 0 6 -4 10
-10 10 -5 0 -10 7 -10 15 0 8 -4 15 -9 15 -5 0 -11 8 -15 18 -6 19 -27 54 -37
62 -4 3 -15 19 -25 37 -11 18 -66 105 -124 195 -58 89 -107 167 -109 172 -2 6
-8 15 -13 21 -21 24 -148 227 -148 236 0 5 -3 9 -8 9 -4 0 -12 9 -17 20 -6 11
-57 93 -115 182 -58 89 -107 167 -109 172 -2 6 -8 15 -13 21 -5 5 -33 46 -61
91 -129 201 -182 279 -189 282 -4 2 -8 8 -8 14 0 6 -15 31 -33 57 -19 25 -60
84 -92 131 -32 47 -62 87 -67 88 -4 2 -8 10 -8 17 0 31 -35 24 -100 -19 -37
-25 -73 -52 -80 -61 -7 -8 -18 -15 -25 -15 -8 0 -15 -4 -17 -8 -4 -12 -364
-283 -408 -308 -47 -28 -41 -30 -230 72 -19 11 -36 22 -38 27 -2 4 -8 7 -13 7
-7 0 -56 29 -149 88 -14 9 -27 17 -30 17 -5 0 -133 83 -242 156 -32 22 -62 39
-68 39 -5 0 -10 4 -10 8 0 5 -12 15 -27 23 -16 8 -30 16 -33 20 -3 3 -41 30
-85 59 -44 30 -82 57 -85 60 -3 3 -32 25 -65 49 -100 74 -113 90 -108 125 6
44 22 92 53 161 40 86 76 229 104 410 16 104 41 142 96 149 20 2 70 -7 115
-20 44 -14 85 -26 90 -27 6 -2 27 -11 49 -20 21 -9 40 -17 43 -17 2 0 45 -20
96 -44 123 -59 166 -76 189 -76 19 0 19 1 -1 28 -11 16 -45 55 -77 88 -31 32
-81 88 -113 123 -31 35 -60 69 -66 75 -24 26 -72 85 -95 116 -14 18 -30 38
-35 44 -6 6 -26 34 -45 61 -19 28 -38 52 -41 55 -12 11 -101 153 -129 207 -47
91 -41 115 43 162 31 17 206 71 231 71 16 0 3 20 -21 33 -76 38 -164 87 -175
96 -7 6 -40 32 -73 58 -86 67 -187 170 -219 226 -26 43 -27 51 -16 73 19 34
107 81 185 98 91 20 124 31 118 36 -4 4 -48 22 -98 40 -49 18 -94 37 -99 42
-6 4 -17 8 -25 8 -19 0 -165 70 -169 82 -2 4 -9 8 -16 8 -15 0 -100 79 -115
107 -27 52 -8 98 57 143 19 13 30 26 25 31 -5 5 -54 11 -109 13 -163 8 -263
36 -314 91 -21 22 -63 119 -55 127 3 2 7 40 11 85 8 104 15 101 -201 107 -191
6 -212 16 -221 103 -9 80 -13 81 -172 51 -143 -28 -190 -36 -257 -43 -22 -2
-65 -6 -95 -10 -30 -3 -73 -8 -95 -10 -174 -18 -375 -24 -405 -11 -46 20 -51
38 -54 188 -1 27 -3 48 -6 48 -3 0 -5 15 -4 32 1 48 -23 87 -54 88 -7 0 -34
-22 -60 -48z"/>
<path d="M941 5751 c-13 -8 -29 -62 -35 -116 -2 -16 -7 -48 -11 -70 -13 -68
-15 -79 -21 -125 -3 -25 -8 -54 -10 -65 -3 -11 -7 -38 -9 -60 -3 -22 -7 -51
-10 -65 -3 -14 -8 -45 -11 -70 -3 -25 -9 -67 -14 -95 -5 -27 -12 -70 -15 -95
-3 -25 -10 -72 -15 -105 -5 -33 -12 -80 -16 -105 -3 -25 -8 -56 -11 -70 -2
-14 -4 -32 -4 -40 -1 -8 -5 -40 -10 -70 -5 -30 -11 -77 -14 -105 -4 -27 -8
-63 -11 -80 -19 -134 -26 -262 -14 -270 14 -9 43 13 62 48 30 54 102 200 122
247 11 25 36 81 56 125 20 44 37 83 39 87 14 47 144 330 181 394 29 51 29 51
67 45 47 -9 43 -8 73 -15 14 -3 39 -8 55 -10 17 -3 39 -7 50 -9 58 -13 101
-21 110 -22 6 -1 26 -5 45 -10 19 -5 43 -10 53 -11 9 -1 18 -2 20 -4 1 -1 13
-3 27 -4 14 -2 41 -6 60 -11 19 -4 58 -9 85 -11 241 -21 307 32 309 246 3 271
-32 326 -243 380 -73 18 -91 22 -171 35 -19 3 -73 13 -120 21 -47 8 -101 17
-120 19 -19 3 -46 6 -60 9 -23 3 -63 9 -150 22 -19 2 -55 7 -80 10 -25 3 -56
7 -70 10 -14 2 -52 7 -85 10 -33 3 -62 7 -65 9 -3 2 -12 0 -19 -4z"/>
<path d="M4391 3090 c-5 -17 -10 -33 -10 -35 0 -3 -7 -18 -15 -33 -8 -15 -32
-67 -51 -117 -20 -49 -43 -103 -50 -120 -31 -71 -227 -547 -239 -583 l-14 -40
36 -32 c20 -18 60 -53 88 -79 28 -25 88 -80 134 -121 46 -41 108 -98 138 -125
l54 -50 4 -90 c2 -50 6 -144 9 -210 3 -66 7 -167 10 -225 2 -58 7 -152 10
-210 4 -58 8 -136 10 -175 11 -189 15 -260 16 -260 0 0 2 -20 5 -45 11 -128
14 -159 19 -205 6 -54 29 -141 44 -164 6 -9 18 10 40 67 17 45 31 83 31 86 0
3 5 17 12 33 6 15 12 33 14 38 1 6 30 89 64 185 34 96 155 456 270 799 l209
624 -22 31 c-12 17 -25 36 -29 41 -5 6 -47 64 -94 130 -47 66 -93 131 -104
145 -10 14 -55 75 -100 135 -44 61 -86 117 -93 125 -7 8 -23 31 -37 50 -13 19
-27 37 -30 40 -3 3 -32 41 -65 85 -32 44 -63 85 -68 90 -4 6 -40 53 -79 105
-39 52 -79 105 -88 118 l-18 22 -11 -30z"/>
</g>
</svg>
